<svg xmlns="http://www.w3.org/2000/svg">
<symbol width="50" height="24" viewBox="0 0 50 24" fill="currentColor" id="icon-burger">
<path d="M1.13659 0.00020839C0.986512 -0.00251551 0.837358 0.0214885 0.698091 0.0707781C0.558823 0.120068 0.432317 0.193625 0.326173 0.28703C0.22003 0.380436 0.136442 0.49176 0.0804303 0.614315C0.024419 0.73687 -0.00285856 0.868124 0.000236809 1.00019V3.00016C0.000236809 3.26537 0.119959 3.51972 0.333067 3.70725C0.546174 3.89478 0.83521 4.00014 1.13659 4.00014H48.8634C49.0135 4.00286 49.1626 3.97886 49.3019 3.92957C49.4412 3.88028 49.5677 3.80672 49.6738 3.71332C49.78 3.61991 49.8636 3.50859 49.9196 3.38603C49.9756 3.26348 50.0029 3.13222 49.9998 3.00016V1.00019C49.9998 0.734979 49.88 0.48063 49.6669 0.293097C49.4538 0.105563 49.1648 0.00020839 48.8634 0.00020839H1.13659ZM1.13659 10C0.986512 9.99731 0.837358 10.0213 0.698091 10.0706C0.558823 10.1199 0.432317 10.1935 0.326173 10.2869C0.22003 10.3803 0.136442 10.4916 0.0804303 10.6141C0.024419 10.7367 -0.00285856 10.868 0.000236809 11V13C0.000236809 13.2652 0.119959 13.5195 0.333067 13.7071C0.546174 13.8946 0.83521 14 1.13659 14H48.8634C49.0135 14.0027 49.1626 13.9787 49.3019 13.9294C49.4412 13.8801 49.5677 13.8065 49.6738 13.7131C49.78 13.6197 49.8636 13.5084 49.9196 13.3859C49.9756 13.2633 50.0029 13.132 49.9998 13V11C49.9998 10.7348 49.88 10.4805 49.6669 10.2929C49.4538 10.1054 49.1648 10 48.8634 10H1.13659ZM1.13659 19.9999C0.986512 19.9971 0.837358 20.0211 0.698091 20.0704C0.558823 20.1197 0.432317 20.1933 0.326173 20.2867C0.22003 20.3801 0.136442 20.4914 0.0804303 20.614C0.024419 20.7365 -0.00285856 20.8678 0.000236809 20.9998V22.9998C0.000236809 23.265 0.119959 23.5194 0.333067 23.7069C0.546174 23.8944 0.83521 23.9998 1.13659 23.9998H48.8634C49.0135 24.0025 49.1626 23.9785 49.3019 23.9292C49.4412 23.8799 49.5677 23.8064 49.6738 23.713C49.78 23.6196 49.8636 23.5082 49.9196 23.3857C49.9756 23.2631 50.0029 23.1319 49.9998 22.9998V20.9998C49.9998 20.7346 49.88 20.4803 49.6669 20.2927C49.4538 20.1052 49.1648 19.9999 48.8634 19.9999H1.13659Z" fill="currentColor"/>
</symbol>
<symbol width="23" height="23" viewBox="0 0 23 23" fill="currentColor" id="icon-close">
<path d="M20.8487 1.37761e-06L0 20.8487L2.15131 23L23 2.15131L20.8487 1.37761e-06Z" fill="currentColor"/>
<path d="M2.15131 0L0 2.15131L20.8487 23L23 20.8487L2.15131 0Z" fill="currentColor"/>
</symbol>
<symbol width="47" height="56" viewBox="0 0 47 56" fill="none" id="icon-apple-logo">
<path d="M39.2449 29.7391C39.2544 32.1546 39.994 34.5144 41.3723 36.5268C42.7506 38.5393 44.7071 40.1162 47 41.0627C46.0779 43.8922 44.7301 46.5744 43.0003 49.0227C40.5985 52.4356 38.0949 55.8386 34.1562 55.9273C30.2176 56.0161 29.0676 53.708 24.6303 53.708C20.193 53.708 18.8292 55.8583 15.1654 55.9964C11.5016 56.1345 8.47889 52.2778 6.07705 48.8846C1.1207 41.98 -2.67543 29.246 2.41322 20.6842C3.60995 18.6123 5.34099 16.8769 7.43708 15.6476C9.53317 14.4183 11.9225 13.7373 14.3716 13.6711C18.0965 13.6021 21.6178 16.0976 23.8975 16.0976C26.1772 16.0976 30.4619 13.0892 34.9602 13.533C37.0437 13.6063 39.0815 14.1457 40.9142 15.1091C42.7468 16.0725 44.3247 17.4337 45.5243 19.0863C45.2495 19.254 39.2144 22.657 39.2754 29.7391H39.2449ZM31.9783 8.93654C34.1591 6.45976 35.2387 3.24645 34.9806 0C31.6761 0.302095 28.6167 1.81996 26.4317 4.2414C24.5692 6.33251 22.9307 9.68618 23.3785 12.9018C26.625 13.1484 29.9327 11.3038 31.9478 8.95627" fill="white"/>
</symbol>
<symbol width="43" height="47" fill="none" id="icon-android-logo">
<path d="M34.89 14.06H8.1V33.2c0 .92.34 1.8.96 2.47a3.7 3.7 0 002.43 1.16v7.46c.04.73.37 1.42.92 1.93a2.99 2.99 0 004.05 0c.55-.5.88-1.2.92-1.93v-7.44h8.24v7.44c.04.73.37 1.42.92 1.93a2.99 2.99 0 004.05 0c.55-.5.88-1.2.92-1.93v-7.46a3.7 3.7 0 002.43-1.16c.63-.67.97-1.55.97-2.46V14.4l-.03-.34zM2.95 15.74c.78 0 1.53.3 2.08.85.56.54.87 1.27.87 2.04v12.4a2.84 2.84 0 01-.86 2.05 2.95 2.95 0 01-2.09.85c-.78 0-1.53-.3-2.09-.85A2.87 2.87 0 010 31.03v-12.4a2.84 2.84 0 01.87-2.04 2.95 2.95 0 012.08-.85zM40.06 15.74c.78 0 1.53.3 2.08.85.55.54.86 1.27.86 2.04v12.4a2.84 2.84 0 01-.86 2.05 2.95 2.95 0 01-2.08.85c-.79 0-1.54-.3-2.1-.85a2.87 2.87 0 01-.86-2.05v-12.4a2.84 2.84 0 01.87-2.04 2.95 2.95 0 012.09-.85zM8.17 12.06h26.57a10.4 10.4 0 00-3.26-7.3L34.05.5a.3.3 0 00-.12-.46.32.32 0 00-.42.1L31.09 4.3A16.7 16.7 0 0021.46.9a16.98 16.98 0 00-9.58 3.4L9.5.2a.32.32 0 00-.18-.16.33.33 0 00-.25 0 .31.31 0 00-.11.42l2.5 4.25a10.44 10.44 0 00-3.29 7.36zm17.7-5.21c0-.4.17-.78.45-1.06a1.55 1.55 0 012.17 0 1.49 1.49 0 010 2.12 1.55 1.55 0 01-2.17 0 1.49 1.49 0 01-.45-1.06zm-11.38 0c0-.4.16-.78.45-1.06a1.55 1.55 0 012.17 0 1.49 1.49 0 010 2.12 1.55 1.55 0 01-2.17 0 1.49 1.49 0 01-.45-1.06z" fill="#A4C639"/>
<symbol width="44" height="41" viewBox="0 0 44 41" id="icon-microsoft-logo">
<path d="M20.908 19.5238H0V0H20.908V19.5238Z" fill="#F05423"/>
<path d="M44 19.5238H23.092V0H44V19.5238Z" fill="#84C441"/>
<path d="M20.908 41H0V21.4762H20.908V41Z" fill="#2DABE2"/>
<path d="M44 41H23.092V21.4762H44V41Z" fill="#F9BC15"/>
</symbol>
<symbol width="18" height="14" viewBox="0 0 18 14" fill="none" id="icon-twitter">
<path d="M11.5641 0.168904C12.2458 -0.0461515 12.9837 -0.0560928 13.6719 0.140507C14.3602 0.337107 14.9633 0.730138 15.3947 1.26319C16.1053 1.05385 16.8055 0.815959 17.5263 0.606617C17.5164 0.925848 17.4299 1.23907 17.2732 1.52372C17.1165 1.80837 16.8935 2.05738 16.6201 2.2528C16.8726 2.27877 17.1281 2.25112 17.3673 2.17197C17.6064 2.09281 17.8228 1.96424 18 1.79606C17.901 2.20987 17.6999 2.59695 17.4123 2.92708C17.1247 3.2572 16.7585 3.52144 16.3421 3.69916C16.095 9.96988 12.9748 14.1662 5.65332 13.9949H5.14874C4.70595 13.9949 0.731121 13.5667 0 12.2441C1.75201 12.4899 3.53888 12.0976 4.98398 11.1498C3.95423 10.8643 2.13158 10.7026 1.82265 8.40934C2.2108 8.54337 2.6321 8.57306 3.03776 8.49498C1.76087 7.70519 0.339817 7.0391 0.422197 4.99327C0.819634 5.29882 1.3269 5.45507 1.84325 5.43098C1.10183 5.20261 -0.24714 2.30989 0.895881 0.825474C2.82151 2.54778 4.86041 4.17493 8.48512 4.3367C8.71167 2.20522 9.68993 0.777896 11.5641 0.168904Z" fill="#D22856"/>
</symbol>
<symbol width="9" height="18" viewBox="0 0 9 18" fill="none" id="icon-fb">
<path d="M6.50865 3.19324H9V0H6.02076C2.76125 0.171067 1.59862 2.27138 2.07612 5.81626H0V9.15206H2.07612V18H6.02076V9.15206H8.97924V5.81626H6.01038C5.98962 4.81837 5.96886 3.52587 6.50865 3.19324Z" fill="#D22856"/>
</symbol>
<symbol width="15" height="13" viewBox="0 0 15 13" fill="none" id="icon-youtube">
<path d="M1.83356 12.8089C1.64633 12.9278 1.42471 12.9941 1.19626 12.9996C0.967817 13.0051 0.74263 12.9495 0.548717 12.8398C0.354804 12.7301 0.200724 12.571 0.105646 12.3824C0.010569 12.1938 -0.0213097 11.984 0.0139762 11.779V1.22097C-0.0213097 1.01605 0.010569 0.806234 0.105646 0.617628C0.200724 0.429021 0.354804 0.269949 0.548717 0.1602C0.74263 0.0504516 0.967817 -0.00512927 1.19626 0.000372265C1.42471 0.0058738 1.64633 0.0722149 1.83356 0.191142L14.2333 5.69284C15.2556 6.13817 15.2556 6.86183 14.2333 7.30716L1.83356 12.8089Z" fill="#D22856"/>
</symbol>
<symbol width="27" height="34" viewBox="0 0 27 34" fill="none" id="icon-html-academy">
<path d="M13.6426 0.0157537L13.5 0L0 1.40733V26.0129L13.5 34L27 26.0129V1.40733L13.6426 0.0157537ZM25.2344 25.0151L13.5 31.9573L1.76561 25.0151V14.9293L13.4507 21.8451L13.4701 23.0984L5.45351 18.3548L5.44295 19.5801L13.4894 24.3885L13.5088 25.675L5.46408 20.9174L5.45351 22.1427L13.5 26.9511L21.6239 22.1182V20.8929V16.909L25.2432 14.7595L25.2344 25.0151ZM25.2344 13.4519L22.0147 15.3319L20.5325 16.2071L13.4666 12.0201L13.456 13.2454L19.4957 16.818L19.4429 16.8495L19.3126 16.9247L18.4536 17.4166L13.4666 14.4689L13.456 15.6942L17.3921 18.0222L16.4591 18.6314L16.438 18.6436L13.4666 16.902L13.456 18.1273L15.4029 19.2615L13.4155 20.4483L1.7973 13.5762L13.4349 6.61831L25.2344 13.4519ZM25.2344 12.2266L13.4401 5.31075L1.76561 12.2196V2.9897L13.5 1.76442L25.2344 2.9897V12.2266Z" fill="currentColor"/>
</symbol>
<symbol width="13" height="12" viewBox="0 0 13 12" fill="none" id="like-icon">
<path d="M6.46867 12C6.3589 12.0014 6.25012 11.9798 6.14988 11.9367C6.04963 11.8935 5.96033 11.8298 5.88815 11.75C1.95926 7.42 1.03665 6.44 0.860416 6.17C0.307088 5.49497 0.00416162 4.66056 0 3.8C0.00441359 3.07425 0.223059 2.36473 0.63034 1.7545C1.03762 1.14428 1.61668 0.658598 2.29973 0.354328C2.98278 0.0500576 3.74155 -0.0602132 4.48721 0.036425C5.23287 0.133063 5.93456 0.432611 6.51014 0.9C7.22774 0.319491 8.13412 0.00090711 9.07066 0C10.1136 0.00264761 11.1129 0.404172 11.8494 1.11652C12.5859 1.82888 12.9995 2.79391 12.9995 3.8C13.014 4.67715 12.6845 5.5272 12.0769 6.18L7.03883 11.74C6.9678 11.8185 6.88016 11.8814 6.78182 11.9246C6.68348 11.9677 6.5767 11.99 6.46867 11.99V12ZM2.07329 5.28C2.29099 5.54 4.63381 8.12 6.46867 10.14L10.947 5.2C11.3073 4.81798 11.5005 4.3163 11.486 3.8C11.486 3.18205 11.2316 2.5894 10.7786 2.15244C10.3256 1.71548 9.71126 1.47 9.07066 1.47C8.69007 1.47297 8.31512 1.55909 7.97398 1.7219C7.63285 1.8847 7.33439 2.11996 7.10103 2.41C7.02566 2.49603 6.9321 2.56553 6.82661 2.61382C6.72113 2.66211 6.60615 2.68809 6.48941 2.69C6.37337 2.68847 6.25936 2.6605 6.15667 2.60836C6.05398 2.55622 5.96552 2.4814 5.89852 2.39C5.66784 2.10104 5.37087 1.86758 5.03093 1.70796C4.69099 1.54833 4.31732 1.46688 3.93926 1.47C3.48505 1.47534 3.04153 1.6036 2.65919 1.84016C2.27684 2.07673 1.97103 2.41211 1.77658 2.8081C1.58213 3.2041 1.50684 3.64481 1.5593 4.08006C1.61176 4.51531 1.78985 4.9276 2.07329 5.27V5.28Z" fill="currentColor"/>
</symbol>
<symbol width="44" height="44" viewBox="0 0 44 44" fill="none" id="crop-photo-icon">
<path d="M32 28H36V12C36 10.9391 35.5786 9.92172 34.8284 9.17157C34.0783 8.42143 33.0609 8 32 8H16V12H32V28ZM12 32V0H8V8H0V12H8V32C8 33.0609 8.42143 34.0783 9.17157 34.8284C9.92172 35.5786 10.9391 36 12 36H32V44H36V36H44V32H12Z" fill="currentColor"/>
</symbol>
<symbol width="48" height="43" viewBox="0 0 48 43" fill="none" id="fill-photo-icon">
<g opacity="0.3">
<path d="M33.12 17.88L15.24 0L12.41 2.83L17.17 7.59L6.88 17.88C6.3182 18.4425 6.00264 19.205 6.00264 20C6.00264 20.795 6.3182 21.5575 6.88 22.12L17.88 33.12C18.4425 33.6818 19.205 33.9974 20 33.9974C20.795 33.9974 21.5575 33.6818 22.12 33.12L33.12 22.12C33.6818 21.5575 33.9974 20.795 33.9974 20C33.9974 19.205 33.6818 18.4425 33.12 17.88ZM10.41 20L20 10.42L29.59 20H10.41ZM38 23C38 23 34 27.33 34 30C34 31.0609 34.4214 32.0783 35.1716 32.8284C35.9217 33.5786 36.9391 34 38 34C39.0609 34 40.0783 33.5786 40.8284 32.8284C41.5786 32.0783 42 31.0609 42 30C42 27.33 38 23 38 23Z" fill="currentColor"/>
<path d="M48 40H0V43H48V40Z" fill="currentColor"/>
</g>
</symbol>
<symbol width="32" height="32" viewBox="0 0 32 32" fill="none" id="contrast-photo-icon">
<g opacity="0.3">
<path d="M16 4C18.3734 4 20.6935 4.70379 22.6669 6.02236C24.6402 7.34094 26.1783 9.21509 27.0866 11.4078C27.9948 13.6005 28.2325 16.0133 27.7694 18.3411C27.3064 20.6689 26.1635 22.8071 24.4853 24.4853C22.8071 26.1635 20.6689 27.3064 18.3411 27.7694C16.0133 28.2324 13.6005 27.9948 11.4078 27.0866C9.21509 26.1783 7.34095 24.6402 6.02237 22.6668C4.70379 20.6935 4.00001 18.3734 4.00001 16C4.00001 12.8174 5.26429 9.76515 7.51473 7.51472C9.76516 5.26428 12.8174 4 16 4ZM16 0C12.8355 0 9.74207 0.938384 7.11088 2.69649C4.4797 4.45459 2.42894 6.95345 1.21793 9.87706C0.0069325 12.8007 -0.309921 16.0177 0.307443 19.1214C0.924806 22.2251 2.44866 25.0761 4.6863 27.3137C6.92394 29.5513 9.77487 31.0752 12.8786 31.6926C15.9823 32.3099 19.1993 31.9931 22.1229 30.7821C25.0466 29.5711 27.5454 27.5203 29.3035 24.8891C31.0616 22.2579 32 19.1645 32 16C32 11.7565 30.3143 7.68687 27.3137 4.68629C24.3131 1.68571 20.2435 0 16 0Z" fill="currentColor"/>
<path d="M16 24.29C18.1536 24.1422 20.1708 23.1824 21.644 21.6046C23.1172 20.0268 23.9366 17.9486 23.9366 15.79C23.9366 13.6314 23.1172 11.5532 21.644 9.97538C20.1708 8.39759 18.1536 7.43782 16 7.29" fill="currentColor"/>
</g>
</symbol>
</svg>
